<?xml version="1.0" encoding="utf-8"?>
<!-- Generator: Adobe Illustrator 23.0.3, SVG Export Plug-In . SVG Version: 6.00 Build 0)  -->
<svg version="1.1" id="Layer_1" xmlns="http://www.w3.org/2000/svg" xmlns:xlink="http://www.w3.org/1999/xlink" x="0px" y="0px"
	 viewBox="0 0 300 300" style="enable-background:new 0 0 300 300;" xml:space="preserve">
<style type="text/css">
	.st0{fill:#232323;}
	.st1{fill:none;stroke:#232323;stroke-width:7;stroke-linecap:round;stroke-linejoin:round;stroke-miterlimit:10;}
	.st2{fill:none;stroke:#232323;stroke-width:5;stroke-linecap:round;stroke-linejoin:round;stroke-miterlimit:10;}
	.st3{fill:none;stroke:#232323;stroke-width:7;stroke-linecap:round;stroke-miterlimit:10;}
</style>
<g>
	<g>
		<g>
			<path class="st0" d="M42.1,148.3c-11.6,0-20.9-9.4-20.9-20.9s9.4-20.9,20.9-20.9c11.6,0,20.9,9.4,20.9,20.9
				S53.7,148.3,42.1,148.3z M42.1,113.4c-7.7,0-13.9,6.3-13.9,13.9s6.3,13.9,13.9,13.9c7.7,0,13.9-6.3,13.9-13.9
				S49.8,113.4,42.1,113.4z"/>
			<path class="st0" d="M56.1,248.5H31c-1.9,0-3.5-1.6-3.5-3.5v-33.8H16.3c-1.9,0-3.5-1.6-3.5-3.5v-48.6c0-9.8,8-17.8,17.8-17.8
				h24.7c9.8,0,17.8,8,17.8,17.8v48.6c0,1.9-1.6,3.5-3.5,3.5h-10V245C59.6,246.9,58,248.5,56.1,248.5z M34.5,241.5h18.1v-33.8
				c0-1.9,1.6-3.5,3.5-3.5h10v-45.1c0-5.9-4.8-10.8-10.8-10.8H30.6c-5.9,0-10.8,4.8-10.8,10.8v45.1H31c1.9,0,3.5,1.6,3.5,3.5V241.5z
				"/>
		</g>
		<g>
			<path class="st0" d="M230.1,148.3c-11.6,0-20.9-9.4-20.9-20.9s9.4-20.9,20.9-20.9s20.9,9.4,20.9,20.9S241.7,148.3,230.1,148.3z
				 M230.1,113.4c-7.7,0-13.9,6.3-13.9,13.9s6.3,13.9,13.9,13.9s13.9-6.3,13.9-13.9S237.8,113.4,230.1,113.4z"/>
			<path class="st0" d="M244.1,248.5H219c-1.9,0-3.5-1.6-3.5-3.5v-33.8h-11.2c-1.9,0-3.5-1.6-3.5-3.5v-48.6c0-9.8,8-17.8,17.8-17.8
				h24.7c9.8,0,17.8,8,17.8,17.8v48.6c0,1.9-1.6,3.5-3.5,3.5h-10V245C247.6,246.9,246,248.5,244.1,248.5z M222.5,241.5h18.1v-33.8
				c0-1.9,1.6-3.5,3.5-3.5h10v-45.1c0-5.9-4.8-10.8-10.8-10.8h-24.7c-5.9,0-10.8,4.8-10.8,10.8v45.1H219c1.9,0,3.5,1.6,3.5,3.5
				V241.5z"/>
		</g>
		<path class="st0" d="M153.2,207.3c-0.9,0-1.8-0.3-2.5-1c-1.4-1.4-1.4-3.6,0-4.9l23.5-23.5c-6.7-6.6-21.7-21.4-23.1-23.2
			c-1.2-1.5-1-3.7,0.5-4.9c1.5-1.2,3.7-1,4.9,0.5c1.2,1.4,16.1,16.2,25.1,25.1c0.7,0.7,1,1.5,1,2.5c0,0.9-0.4,1.8-1,2.5l-26,26
			C155,207,154.1,207.3,153.2,207.3z"/>
		<path class="st0" d="M179.1,181.3H90.7c-1.9,0-3.5-1.6-3.5-3.5s1.6-3.5,3.5-3.5h88.4c1.9,0,3.5,1.6,3.5,3.5
			S181.1,181.3,179.1,181.3z"/>
	</g>
	<path class="st0" d="M136.6,107c-19.7,0-35.8-16-35.8-35.8s16-35.8,35.8-35.8s35.8,16,35.8,35.8S156.3,107,136.6,107z M136.6,42.4
		c-15.9,0-28.8,12.9-28.8,28.8s12.9,28.8,28.8,28.8s28.8-12.9,28.8-28.8S152.4,42.4,136.6,42.4z"/>
	<circle class="st0" cx="130.3" cy="57.3" r="5.2"/>
	<circle class="st0" cx="143.2" cy="81.4" r="5.2"/>
	<circle class="st0" cx="125.1" cy="78.7" r="5.2"/>
	<circle class="st0" cx="150.5" cy="65" r="5.2"/>
	<g>
		<path class="st0" d="M112.1,48.2c-0.9,0-1.8-0.3-2.5-1l-9-9c-1.4-1.4-1.4-3.6,0-5c1.4-1.4,3.6-1.4,5,0l9,9c1.4,1.4,1.4,3.6,0,5
			C113.9,47.9,113,48.2,112.1,48.2z"/>
		<path class="st0" d="M96.5,43.5c-0.9,0-1.8-0.3-2.5-1c-1.4-1.4-1.4-3.6,0-4.9l11-11c1.4-1.4,3.6-1.4,4.9,0c1.4,1.4,1.4,3.6,0,4.9
			l-11,11C98.3,43.1,97.4,43.5,96.5,43.5z"/>
	</g>
	<g>
		<path class="st0" d="M137.9,38.7c-1.9,0-3.5-1.6-3.5-3.5l0-12.7c0-1.9,1.6-3.5,3.5-3.5c0,0,0,0,0,0c1.9,0,3.5,1.6,3.5,3.5l0,12.7
			C141.4,37.1,139.8,38.7,137.9,38.7C137.9,38.7,137.9,38.7,137.9,38.7z"/>
		<path class="st0" d="M130.2,24.3c-1.9,0-3.5-1.6-3.5-3.5c0-1.9,1.6-3.5,3.5-3.5l15.6-0.1c0,0,0,0,0,0c1.9,0,3.5,1.6,3.5,3.5
			c0,1.9-1.6,3.5-3.5,3.5L130.2,24.3C130.2,24.3,130.2,24.3,130.2,24.3z"/>
	</g>
	<g>
		<path class="st0" d="M161.2,48.5c-0.8,0-1.6-0.3-2.3-0.9c-1.5-1.3-1.6-3.5-0.3-4.9l8.3-9.6c1.3-1.5,3.5-1.6,4.9-0.3
			c1.5,1.3,1.6,3.5,0.3,4.9l-8.3,9.6C163.2,48.1,162.2,48.5,161.2,48.5z"/>
		<path class="st0" d="M176.7,42.8c-0.8,0-1.6-0.3-2.3-0.9l-11.7-10.2c-1.5-1.3-1.6-3.5-0.3-4.9c1.3-1.5,3.5-1.6,4.9-0.3L179,36.6
			c1.5,1.3,1.6,3.5,0.3,4.9C178.6,42.4,177.6,42.8,176.7,42.8z"/>
	</g>
	<g>
		<path class="st0" d="M172.6,73.5c-1.8,0-3.3-1.4-3.5-3.2c-0.1-1.9,1.3-3.6,3.2-3.7l12.7-0.9c1.9-0.2,3.6,1.3,3.7,3.2
			s-1.3,3.6-3.2,3.7l-12.7,0.9C172.7,73.5,172.6,73.5,172.6,73.5z"/>
		<path class="st0" d="M187.5,80.3c-1.8,0-3.3-1.4-3.5-3.2l-1.2-15.5c-0.1-1.9,1.3-3.6,3.2-3.7c1.9-0.1,3.6,1.3,3.7,3.2l1.2,15.5
			c0.1,1.9-1.3,3.6-3.2,3.7C187.7,80.3,187.6,80.3,187.5,80.3z"/>
	</g>
	<g>
		<path class="st0" d="M171.8,108.3c-0.8,0-1.7-0.3-2.3-0.9l-9.5-8.5c-1.4-1.3-1.6-3.5-0.3-4.9c1.3-1.4,3.5-1.6,4.9-0.3l9.5,8.5
			c1.4,1.3,1.6,3.5,0.3,4.9C173.7,107.9,172.8,108.3,171.8,108.3z"/>
		<path class="st0" d="M167.8,115.3c-0.8,0-1.7-0.3-2.3-0.9c-1.4-1.3-1.6-3.5-0.3-4.9l10.4-11.6c1.3-1.4,3.5-1.6,4.9-0.3
			c1.4,1.3,1.6,3.5,0.3,4.9l-10.4,11.6C169.7,114.9,168.8,115.3,167.8,115.3z"/>
	</g>
	<g>
		<path class="st0" d="M137.9,123.4c-1.8,0-3.4-1.4-3.5-3.3l-0.7-12.7c-0.1-1.9,1.4-3.6,3.3-3.7c1.9-0.1,3.6,1.4,3.7,3.3l0.7,12.7
			c0.1,1.9-1.4,3.6-3.3,3.7C138.1,123.4,138,123.4,137.9,123.4z"/>
		<path class="st0" d="M130.1,125.5c-1.8,0-3.4-1.4-3.5-3.3c-0.1-1.9,1.4-3.6,3.3-3.7l15.5-0.9c1.9-0.1,3.6,1.4,3.7,3.3
			s-1.4,3.6-3.3,3.7l-15.5,0.9C130.3,125.5,130.2,125.5,130.1,125.5z"/>
	</g>
	<g>
		<path class="st0" d="M101.5,108.5c-0.9,0-1.8-0.3-2.4-1c-1.4-1.4-1.4-3.6-0.1-4.9l8.9-9.1c1.4-1.4,3.6-1.4,4.9-0.1
			c1.4,1.4,1.4,3.6,0.1,4.9l-8.9,9.1C103.3,108.2,102.4,108.5,101.5,108.5z"/>
		<path class="st0" d="M105.8,115.1c-0.9,0-1.8-0.3-2.4-1l-11.1-10.9c-1.4-1.4-1.4-3.6-0.1-4.9c1.4-1.4,3.6-1.4,4.9-0.1l11.1,10.9
			c1.4,1.4,1.4,3.6,0.1,4.9C107.6,114.8,106.7,115.1,105.8,115.1z"/>
	</g>
	<g>
		<path class="st0" d="M87.9,74c-1.9,0-3.5-1.5-3.5-3.4c0-1.9,1.5-3.5,3.4-3.6l12.7-0.2c0,0,0,0,0.1,0c1.9,0,3.5,1.5,3.5,3.4
			c0,1.9-1.5,3.5-3.4,3.6L87.9,74C87.9,74,87.9,74,87.9,74z"/>
		<path class="st0" d="M86.3,81.7c-1.9,0-3.5-1.5-3.5-3.4l-0.2-15.6c0-1.9,1.5-3.5,3.4-3.6c1.9-0.1,3.5,1.5,3.6,3.4l0.2,15.6
			C89.8,80.1,88.3,81.7,86.3,81.7C86.3,81.7,86.3,81.7,86.3,81.7z"/>
	</g>
</g>
</svg>
