<?xml version="1.0" encoding="utf-8"?>
<!-- Generator: Adobe Illustrator 23.0.3, SVG Export Plug-In . SVG Version: 6.00 Build 0)  -->
<svg version="1.1" id="Capa_1" xmlns="http://www.w3.org/2000/svg" xmlns:xlink="http://www.w3.org/1999/xlink" x="0px" y="0px"
	 viewBox="0 0 116.3 116.3" style="enable-background:new 0 0 116.3 116.3;" xml:space="preserve">
<style type="text/css">
	.st0{fill:#242424;}
	.st1{fill:#211F20;}
	.st2{fill:#232323;}
	.st3{fill:#252525;}
	.st4{fill:#222222;}
	.st5{fill:#1F1F1F;}
	.st6{fill:#211E1F;}
	.st7{fill:#201E1F;}
	.st8{fill:#212020;}
	.st9{fill:#221F20;}
	.st10{fill:#222021;}
	.st11{fill:#201F20;}
	.st12{fill:#0383B2;}
	.st13{fill:#66B623;}
	.st14{fill:#1AAC6E;}
	.st15{fill:#FF3530;}
	.st16{fill:#111224;}
	.st17{fill:#FEFEFE;}
	.st18{fill:#F8F8F8;}
	.st19{fill:#FDFDFD;}
	.st20{fill:#262626;}
	.st21{fill:#FBFBFB;}
	.st22{fill:#FCFAFB;}
	.st23{fill:#201D1E;}
	.st24{fill:#FDFCFC;}
	.st25{fill:#FBFAFB;}
	.st26{fill:#2A2A2A;}
	.st27{fill:#FEFDFD;}
	.st28{fill:#FDFCFD;}
	.st29{fill:#FCFDFD;}
	.st30{fill:#FDFBFC;stroke:#2A2A2A;stroke-width:6;stroke-miterlimit:10;}
	.st31{fill:#FDFBFC;stroke:#2A2A2A;stroke-width:6;stroke-linecap:round;stroke-miterlimit:10;}
	.st32{fill:#FDFBFC;}
	.st33{fill:#F3F1F2;}
	.st34{fill:#F7F5F6;}
	.st35{fill:#F4F2F3;}
	.st36{fill:#244959;}
	.st37{fill:#FF6D3A;}
	.st38{fill:#12E2E2;}
	.st39{fill:#F1C667;}
	.st40{fill:#F0C76D;}
	.st41{fill:#FFDF8E;}
	.st42{fill:#2C4156;}
	.st43{fill:#12E2E2;stroke:#244959;stroke-width:6;stroke-miterlimit:10;}
	.st44{fill:#18AE89;}
</style>
<g>
	<g>
		<path class="st16" d="M59.1,76c0.1,0.4,0.2,0.7,0.5,1c0.3,0.3,0.7,0.5,1.1,0.5c1,0,1.5-0.5,1.6-1.5l3.2-33.9
			c0.1-0.4,0.1-1.1,0.1-1.9c0-1.2-0.4-2.4-1.3-3.4c-0.8-1-2.1-1.5-3.6-1.5c-1.6,0-2.8,0.5-3.7,1.6c-0.8,1-1.2,2.1-1.2,3.3
			c0,0.7,0,1.4,0.1,1.9L59.1,76z"/>
		<path class="st16" d="M60.7,83.3c-1.4,0-2.6,0.5-3.5,1.4c-1,1-1.4,2.1-1.4,3.5c0,1.3,0.5,2.5,1.4,3.5c1,1,2.1,1.5,3.5,1.5
			s2.6-0.5,3.5-1.4c1-1,1.4-2.1,1.4-3.5s-0.5-2.6-1.4-3.5C63.3,83.8,62.1,83.3,60.7,83.3z"/>
		<path class="st16" d="M115,99.2C97.8,69.4,80.6,39.7,63.4,9.9c-2.2-3.8-4.1-3.7-6.3,0.1C40,39.5,23,69,6,98.5
			c-2.8,4.8-2.1,6,3.4,6.1c16.8,0,33.6,0,50.5,0c0,0,0,0,0,0c17.3,0,34.6,0,51.9,0C116.3,104.6,117.2,103.1,115,99.2z M104.1,99.1
			H16.1c-1.9,0-3.1-2.1-2.1-3.7c14.7-25.6,29.3-50.8,44.1-76.5c0.9-1.6,3.3-1.7,4.2-0.1c10.2,16.5,36.8,63,43.9,76.6
			C107.1,97.1,105.9,99.1,104.1,99.1z"/>
	</g>
</g>
</svg>
